<svg width="25" height="24" viewBox="0 0 25 24" fill="none" xmlns="http://www.w3.org/2000/svg">
<path d="M24.2188 12.1846C24.2188 18.6207 18.7967 23.8356 12.1094 23.8356C5.42202 23.8356 0 18.6207 0 12.1846C0 5.75224 5.42202 0.533569 12.1094 0.533569C18.7967 0.533569 24.2188 5.75224 24.2188 12.1846ZM12.4343 4.38592C9.77334 4.38592 8.07617 5.46444 6.74346 7.38127C6.5708 7.62961 6.62856 7.96453 6.87603 8.14507L8.57031 9.38111C8.82446 9.56654 9.18657 9.52243 9.38403 9.28142C10.2563 8.21695 10.8544 7.59968 12.182 7.59968C13.1795 7.59968 14.4134 8.21737 14.4134 9.14804C14.4134 9.85161 13.8097 10.2129 12.8248 10.7442C11.6762 11.3638 10.1562 12.1348 10.1562 14.0638V14.2517C10.1562 14.563 10.4186 14.8155 10.7422 14.8155H13.4766C13.8001 14.8155 14.0625 14.563 14.0625 14.2517V14.1891C14.0625 12.8519 18.1243 12.7963 18.1243 9.17788C18.1243 6.45295 15.1866 4.38592 12.4343 4.38592ZM12.1094 16.0369C10.8708 16.0369 9.86328 17.0064 9.86328 18.198C9.86328 19.3896 10.8708 20.3591 12.1094 20.3591C13.3479 20.3591 14.3555 19.3896 14.3555 18.198C14.3555 17.0064 13.3479 16.0369 12.1094 16.0369Z" fill="#7166F9"/>
</svg>
