<svg width="12" height="11" viewBox="0 0 12 11" fill="none" xmlns="http://www.w3.org/2000/svg">
<path d="M11.2911 5.58996C11.2911 8.54613 8.83927 10.9414 5.81528 10.9414C2.79129 10.9414 0.339478 8.54613 0.339478 5.58996C0.339478 2.63551 2.79129 0.238525 5.81528 0.238525C8.83927 0.238525 11.2911 2.63551 11.2911 5.58996ZM5.96222 2.00795C4.75893 2.00795 3.99148 2.50333 3.38884 3.38374C3.31076 3.49781 3.33688 3.65164 3.44878 3.73457L4.21493 4.30229C4.32986 4.38746 4.4936 4.3672 4.58289 4.2565C4.97733 3.76758 5.24778 3.48406 5.84813 3.48406C6.2992 3.48406 6.85714 3.76778 6.85714 4.19524C6.85714 4.5184 6.58416 4.68436 6.13879 4.92839C5.61939 5.21294 4.93208 5.56711 4.93208 6.4531V6.53941C4.93208 6.68241 5.05072 6.79835 5.19704 6.79835H6.43351C6.57984 6.79835 6.69847 6.68241 6.69847 6.53941V6.51064C6.69847 5.89648 8.5352 5.87091 8.5352 4.20895C8.5352 2.95736 7.20677 2.00795 5.96222 2.00795ZM5.81528 7.35939C5.25522 7.35939 4.79961 7.80466 4.79961 8.35199C4.79961 8.89931 5.25522 9.3446 5.81528 9.3446C6.37533 9.3446 6.83095 8.89931 6.83095 8.35199C6.83095 7.80466 6.37533 7.35939 5.81528 7.35939Z" fill="#7166F9"/>
</svg>
